HIERARCHY
ROOT Hips
{
	OFFSET 0.000000 0.000000 0.000000
	CHANNELS 6 Xposition Yposition Zposition Xrotation Yrotation Zrotation
	JOINT LeftUpLeg_virtual
	{
		OFFSET 0.000000 0.000000 0.000000
		CHANNELS 3 Xrotation Yrotation Zrotation
		JOINT LeftUpLeg
		{
			OFFSET 11.394100 -6.187798 -0.413800
			CHANNELS 3 Xrotation Yrotation Zrotation
			JOINT LeftLeg
			{
				OFFSET 0.430247 -32.302673 3.732800
				CHANNELS 3 Xrotation Yrotation Zrotation
				JOINT LeftFoot
				{
					OFFSET -0.430247 -48.264931 -6.423300
					CHANNELS 3 Xrotation Yrotation Zrotation
					JOINT LeftToeBase
					{
						OFFSET 4.230900 -16.068199 23.438400
						CHANNELS 3 Xrotation Yrotation Zrotation
						JOINT LeftToe_End
						{
							OFFSET 4.510700 0.695400 19.974600
							CHANNELS 3 Xrotation Yrotation Zrotation
							End Site
							{
								OFFSET 0 0 0
							}
						}
					}
				}
			}
		}
	}
	JOINT RightUpLeg_virtual
	{
		OFFSET 0.000000 0.000000 0.000000
		CHANNELS 3 Xrotation Yrotation Zrotation
		JOINT RightUpLeg
		{
			OFFSET -11.333700 -6.187798 -0.413800
			CHANNELS 3 Xrotation Yrotation Zrotation
			JOINT RightLeg
			{
				OFFSET -0.430392 -32.302628 3.733000
				CHANNELS 3 Xrotation Yrotation Zrotation
				JOINT RightFoot
				{
					OFFSET 0.430392 -48.264973 -6.423500
					CHANNELS 3 Xrotation Yrotation Zrotation
					JOINT RightToeBase
					{
						OFFSET -4.230900 -16.068199 23.438400
						CHANNELS 3 Xrotation Yrotation Zrotation
						JOINT RightToe_End
						{
							OFFSET -4.510700 0.695400 19.974600
							CHANNELS 3 Xrotation Yrotation Zrotation
							End Site
							{
								OFFSET 0 0 0
							}
						}
					}
				}
			}
		}
	}
	JOINT Spine_virtual
	{
		OFFSET 0.000000 0.000000 0.000000
		CHANNELS 3 Xrotation Yrotation Zrotation
		JOINT Spine
		{
			OFFSET -0.002400 12.777504 0.315300
			CHANNELS 3 Xrotation Yrotation Zrotation
			JOINT Spine1
			{
				OFFSET -0.002067 5.816869 0.032633
				CHANNELS 3 Xrotation Yrotation Zrotation
				JOINT Spine1_split
				{
					OFFSET -0.002067 5.816869 0.032633
					CHANNELS 3 Xrotation Yrotation Zrotation
					JOINT Spine2
					{
						OFFSET -0.002067 5.816869 0.032633
						CHANNELS 3 Xrotation Yrotation Zrotation
						JOINT Neck_virtual
						{
							OFFSET 0.000000 0.000000 0.000000
							CHANNELS 3 Xrotation Yrotation Zrotation
							JOINT Neck
							{
								OFFSET -0.003700 21.199493 -0.826900
								CHANNELS 3 Xrotation Yrotation Zrotation
								JOINT Head
								{
									OFFSET 0.000000 20.442200 4.834800
									CHANNELS 3 Xrotation Yrotation Zrotation
									JOINT HeadTop_End
									{
										OFFSET 0.000000 34.668396 4.968400
										CHANNELS 3 Xrotation Yrotation Zrotation
										End Site
										{
											OFFSET 0 0 0
										}
									}
								}
							}
						}
						JOINT LeftShoulder_virtual
						{
							OFFSET 0.000000 0.000000 0.000000
							CHANNELS 3 Xrotation Yrotation Zrotation
							JOINT LeftShoulder
							{
								OFFSET 3.288150 8.794197 -1.372250
								CHANNELS 3 Xrotation Yrotation Zrotation
								JOINT LeftShoulder_split
								{
									OFFSET 3.288150 8.794197 -1.372250
									CHANNELS 3 Xrotation Yrotation Zrotation
									JOINT LeftArm
									{
										OFFSET 11.953299 -2.279007 -0.146200
										CHANNELS 3 Xrotation Yrotation Zrotation
										JOINT LeftForeArm
										{
											OFFSET 18.448900 0.000000 0.000000
											CHANNELS 3 Xrotation Yrotation Zrotation
											JOINT LeftHand
											{
												OFFSET 29.527798 0.000000 0.000000
												CHANNELS 3 Xrotation Yrotation Zrotation
												End Site
												{
													OFFSET 0 0 0
												}
											}
										}
									}
								}
							}
						}
						JOINT RightShoulder_virtual
						{
							OFFSET 0.000000 0.000000 0.000000
							CHANNELS 3 Xrotation Yrotation Zrotation
							JOINT RightShoulder
							{
								OFFSET -3.249400 8.794197 -1.372250
								CHANNELS 3 Xrotation Yrotation Zrotation
								JOINT RightShoulder_split
								{
									OFFSET -3.249400 8.794197 -1.372250
									CHANNELS 3 Xrotation Yrotation Zrotation
									JOINT RightArm
									{
										OFFSET -11.953299 -2.279007 -0.146200
										CHANNELS 3 Xrotation Yrotation Zrotation
										JOINT RightForeArm
										{
											OFFSET -18.448900 0.000000 0.000000
											CHANNELS 3 Xrotation Yrotation Zrotation
											JOINT RightHand
											{
												OFFSET -29.527802 0.000000 0.000000
												CHANNELS 3 Xrotation Yrotation Zrotation
												End Site
												{
													OFFSET 0 0 0
												}
											}
										}
									}
								}
							}
						}
					}
				}
			}
		}
	}
}
MOTION
Frames: 11
Frame Time: 0.03333333
18.038158 92.573860 -24.615597 0.000000 0.000000 0.000000 155.520184 -42.120154 163.636210 -28.219287 26.760719 23.805665 30.320931 22.874466 -0.162241 -7.056967 10.528860 -28.980762 0.585748 -0.120762 0.878376 0.000000 0.000000 0.000000 156.440169 -38.677445 164.106182 -57.799957 14.455291 10.390605 25.501565 -2.163759 -1.839583 5.386728 -2.254587 3.947799 5.618178 0.235476 -2.396716 0.000000 0.000000 0.000000 157.482169 -40.991773 163.751422 35.953395 0.841847 9.218227 -9.296746 -2.392978 2.267483 0.746361 1.503441 0.569700 0.000000 0.000000 0.000000 -9.439192 -2.072373 2.223910 -10.516191 0.056322 -8.957391 -20.093003 -12.124334 7.282739 0.000000 0.000000 0.000000 -10.190852 -1.868991 2.009356 6.895784 -14.979435 25.620943 3.688781 1.533583 2.053421 -69.563899 -1.508628 -45.551310 -1.577074 -60.570097 4.928352 0.000000 0.000000 0.000000 -9.759270 -1.610916 2.423948 6.232313 5.204768 -2.227058 -3.269593 0.114614 2.080590 -0.475936 5.640762 67.964678 14.368876 25.687049 -3.766405 0.000000 0.000000 0.000000 
17.853350 92.908127 -24.845257 0.000000 0.000000 0.000000 155.798637 -42.323076 164.024315 -26.800674 26.879103 22.989268 29.078311 22.958255 0.028850 -6.757292 10.417312 -28.788342 0.688351 -0.122109 0.771581 0.000000 0.000000 0.000000 156.669513 -38.904307 164.451407 -56.888010 14.328067 10.042337 25.038256 -2.115467 -1.918376 5.181571 -2.041699 3.846482 5.619702 0.293013 -2.297958 0.000000 0.000000 0.000000 157.717606 -41.220441 164.161411 35.717668 0.832794 9.171721 -9.245666 -2.406429 2.383947 0.674378 1.583056 0.567002 0.000000 0.000000 0.000000 -9.316620 -2.092987 2.306672 -11.345571 -3.205049 -7.765527 -17.928413 -15.842824 8.093214 0.000000 0.000000 0.000000 -10.079811 -1.907495 2.120690 6.564381 -14.375576 24.796179 3.740313 1.587620 2.347737 -69.403232 -0.980180 -45.790845 -1.441476 -60.054042 5.014091 0.000000 0.000000 0.000000 -9.589609 -1.633612 2.494220 6.099458 4.591652 -2.455482 -3.425840 0.239324 2.041341 -0.355657 6.083244 68.287323 14.099767 25.803579 -3.532536 0.000000 0.000000 0.000000 
17.672913 93.238487 -25.036121 0.000000 0.000000 0.000000 156.028869 -42.508983 164.355156 -25.468951 26.952145 22.164785 27.887244 23.031340 0.222476 -6.467481 10.293510 -28.631482 0.763629 -0.120010 0.688581 0.000000 0.000000 0.000000 156.853628 -39.093728 164.740515 -56.045216 14.180786 9.671606 24.586649 -2.037455 -1.993143 5.052273 -1.840528 3.796986 5.594236 0.345501 -2.191842 0.000000 0.000000 0.000000 157.903728 -41.394696 164.542686 35.495732 0.854401 9.119633 -9.213242 -2.394532 2.454415 0.681234 1.619543 0.543001 0.000000 0.000000 0.000000 -9.194839 -2.094214 2.352405 -12.051440 -6.070805 -6.947884 -16.081670 -18.683149 8.571963 0.000000 0.000000 0.000000 -9.993245 -1.922192 2.193795 6.277633 -13.930885 23.905869 3.818861 1.749371 2.685279 -69.273309 -0.527301 -46.008475 -1.552143 -59.498352 4.829920 0.000000 0.000000 0.000000 -9.438982 -1.641919 2.518678 5.969037 3.998708 -2.622349 -3.547022 0.295935 2.055704 -0.305162 6.528900 68.617597 13.850461 26.017852 -3.312177 0.000000 0.000000 0.000000 
17.494314 93.560287 -25.167294 0.000000 0.000000 0.000000 156.209582 -42.675770 164.639797 -24.243485 26.988599 21.354288 26.782649 23.099903 0.399309 -6.167061 10.165747 -28.500475 0.821441 -0.113798 0.620898 0.000000 0.000000 0.000000 156.993469 -39.255863 164.984435 -55.282400 13.974883 9.263579 24.194041 -1.936944 -2.053133 4.954624 -1.669264 3.770811 5.595669 0.390683 -2.075576 0.000000 0.000000 0.000000 158.040400 -41.539489 164.891026 35.272374 0.895109 9.068617 -9.187772 -2.364109 2.476074 0.734665 1.638705 0.535064 0.000000 0.000000 0.000000 -9.080303 -2.082734 2.360372 -12.649273 -8.437824 -6.521997 -14.579763 -20.540177 8.687822 0.000000 0.000000 0.000000 -9.928602 -1.918124 2.230283 6.030663 -13.584480 23.037470 3.848471 1.931854 2.991747 -69.172399 -0.276333 -46.180668 -1.875455 -59.071834 4.413176 0.000000 0.000000 0.000000 -9.311190 -1.642164 2.498175 5.841310 3.454593 -2.742641 -3.587574 0.352346 2.108302 -0.328077 6.958211 68.971489 13.652509 26.333709 -3.124793 0.000000 0.000000 0.000000 
17.320265 93.866943 -25.238071 0.000000 0.000000 0.000000 156.349355 -42.841177 164.900233 -23.131306 27.002275 20.567993 25.780298 23.181416 0.544879 -5.857350 10.052314 -28.364112 0.878355 -0.103537 0.555626 0.000000 0.000000 0.000000 157.097889 -39.406705 165.197073 -54.603066 13.688441 8.810694 23.914970 -1.824330 -2.093634 4.848791 -1.547341 3.732711 5.645272 0.429663 -1.945586 0.000000 0.000000 0.000000 158.135504 -41.680260 165.199750 35.032915 0.936661 9.031597 -9.161193 -2.325077 2.459631 0.807842 1.666939 0.529914 0.000000 0.000000 0.000000 -8.984398 -2.062296 2.339245 -13.149029 -10.259734 -6.446025 -13.406662 -21.528010 8.518782 0.000000 0.000000 0.000000 -9.878848 -1.899846 2.243101 5.825794 -13.289566 22.274702 3.773019 2.075115 3.196168 -69.064749 -0.263368 -46.272968 -2.391064 -58.821446 3.801256 0.000000 0.000000 0.000000 -9.210972 -1.641813 2.447704 5.719978 2.958183 -2.831836 -3.564369 0.424319 2.159170 -0.389997 7.365474 69.368125 13.503690 26.687267 -2.968839 0.000000 0.000000 0.000000 
17.153164 94.148003 -25.245457 0.000000 0.000000 0.000000 156.465810 -43.032514 165.157198 -22.120394 27.007464 19.818458 24.873112 23.279308 0.658023 -5.551653 9.974462 -28.198463 0.952212 -0.088012 0.476514 0.000000 0.000000 0.000000 157.180357 -39.586356 165.397320 -54.001234 13.316665 8.314476 23.771889 -1.704805 -2.117501 4.715053 -1.481899 3.669829 5.709699 0.462403 -1.804375 0.000000 0.000000 0.000000 158.212644 -41.849819 165.477329 34.781154 0.963743 9.013497 -9.134367 -2.289032 2.423162 0.791171 1.733689 0.529652 0.000000 0.000000 0.000000 -8.912278 -2.044808 2.306284 -13.569311 -11.600184 -6.623855 -12.482651 -21.811763 8.201377 0.000000 0.000000 0.000000 -9.842390 -1.874768 2.248381 5.658889 -12.990602 21.657584 3.628521 2.162873 3.237706 -68.893967 -0.439293 -46.271072 -3.072923 -58.655575 3.028113 0.000000 0.000000 0.000000 -9.132351 -1.647764 2.387377 5.609631 2.517132 -2.906869 -3.517690 0.485078 2.178559 -0.447071 7.729034 69.786577 13.382248 26.981628 -2.830731 0.000000 0.000000 0.000000 
17.006283 94.393272 -25.221554 0.000000 0.000000 0.000000 156.589914 -43.256394 165.446006 -21.194748 26.992966 19.106911 24.043842 23.364428 0.750436 -5.265360 9.930604 -28.008386 1.016287 -0.066200 0.388865 0.000000 0.000000 0.000000 157.261404 -39.842433 165.623276 -53.467250 12.884529 7.774898 23.753998 -1.570681 -2.134241 4.546531 -1.464273 3.598830 5.725907 0.490599 -1.657446 0.000000 0.000000 0.000000 158.299237 -42.078439 165.745414 34.533266 0.962887 9.007629 -9.102626 -2.262020 2.382281 0.730263 1.786981 0.535757 0.000000 0.000000 0.000000 -8.878899 -2.029993 2.273587 -13.927101 -12.547442 -6.936651 -11.733870 -21.650544 7.888148 0.000000 0.000000 0.000000 -9.814213 -1.852465 2.249111 5.528826 -12.661675 21.217445 3.443492 2.186698 3.142731 -68.642179 -0.755453 -46.186757 -3.854185 -58.389013 2.171898 0.000000 0.000000 0.000000 -9.063796 -1.658813 2.331517 5.520927 2.143539 -2.968056 -3.517087 0.460713 2.103538 -0.452145 8.043991 70.195780 13.265142 27.156322 -2.695907 0.000000 0.000000 0.000000 
16.883467 94.599884 -25.180042 0.000000 0.000000 0.000000 156.742733 -43.548374 165.774538 -20.347724 26.939625 18.451030 23.292511 23.395698 0.830372 -5.005831 9.903485 -27.813326 1.062333 -0.039303 0.299953 0.000000 0.000000 0.000000 157.353461 -40.222752 165.873876 -52.981200 12.419292 7.204447 23.830414 -1.426126 -2.156366 4.332775 -1.488565 3.525341 5.669980 0.513939 -1.509046 0.000000 0.000000 0.000000 158.415391 -42.392256 166.017242 34.309157 0.930873 8.999441 -9.068030 -2.242867 2.344481 0.647240 1.828935 0.505026 0.000000 0.000000 0.000000 -8.876881 -2.017538 2.250126 -14.234613 -13.234923 -7.296221 -11.110501 -21.296316 7.675362 0.000000 0.000000 0.000000 -9.792441 -1.827287 2.250645 5.434282 -12.321891 20.920724 3.282596 2.152419 2.998648 -68.325845 -1.124946 -46.083922 -4.635293 -57.947141 1.329286 0.000000 0.000000 0.000000 -8.997814 -1.667419 2.290658 5.463199 1.849822 -3.010092 -3.587626 0.361211 1.973312 -0.333229 8.315063 70.575491 13.149969 27.226481 -2.569622 0.000000 0.000000 0.000000 
16.795027 94.760315 -25.124607 0.000000 0.000000 0.000000 156.936423 -43.943620 166.141565 -19.591233 26.831514 17.871154 22.656402 23.335316 0.899769 -4.801826 9.871323 -27.628544 1.090921 -0.008366 0.220209 0.000000 0.000000 0.000000 157.467798 -40.769426 166.153709 -52.528325 11.949987 6.616667 23.987112 -1.281929 -2.191769 4.052166 -1.547707 3.448609 5.563606 0.534079 -1.370206 0.000000 0.000000 0.000000 158.577690 -42.819808 166.314369 34.126750 0.872472 8.973375 -9.030762 -2.222076 2.310980 0.601877 1.868730 0.470909 0.000000 0.000000 0.000000 -8.897768 -1.999083 2.231886 -14.499699 -13.791744 -7.644957 -10.547428 -20.956982 7.595519 0.000000 0.000000 0.000000 -9.778277 -1.796008 2.242698 5.352737 -11.967711 20.689457 3.173888 2.012566 2.876272 -68.008330 -1.521217 -46.035922 -5.292277 -57.468126 0.595818 0.000000 0.000000 0.000000 -8.928513 -1.656787 2.261888 5.436060 1.640429 -3.031216 -3.677593 0.240020 1.788485 -0.065064 8.573485 70.897241 13.045762 27.219859 -2.473382 0.000000 0.000000 0.000000 
16.743168 94.865578 -25.073032 0.000000 0.000000 0.000000 157.174701 -44.466516 166.541937 -18.953136 26.655314 17.381539 22.172560 23.165649 0.959218 -4.677658 9.810476 -27.453860 1.105889 0.027234 0.158118 0.000000 0.000000 0.000000 157.613336 -41.478141 166.458964 -52.097217 11.507124 6.021275 24.215389 -1.159991 -2.241156 3.693344 -1.644805 3.368507 5.443346 0.555528 -1.248704 0.000000 0.000000 0.000000 158.783334 -43.388418 166.648392 33.988206 0.798352 8.914212 -8.996291 -2.187743 2.272882 0.621141 1.894299 0.442580 0.000000 0.000000 0.000000 -8.927307 -1.965894 2.209255 -14.714005 -14.300204 -7.965408 -10.014002 -20.793249 7.622587 0.000000 0.000000 0.000000 -9.772512 -1.749737 2.220839 5.271673 -11.615625 20.458457 3.107512 1.752358 2.825544 -67.762491 -1.955818 -46.093829 -5.753952 -57.155925 0.021659 0.000000 0.000000 0.000000 -8.859110 -1.617622 2.233717 5.430386 1.513783 -3.037594 -3.777981 0.149059 1.592001 0.347470 8.836488 71.156829 12.978493 27.181255 -2.440244 0.000000 0.000000 0.000000 
16.718485 94.916580 -25.012486 0.000000 0.000000 0.000000 157.442964 -45.146304 166.955491 -18.475385 26.431084 17.002226 21.878824 22.900195 1.003500 -4.658159 9.703921 -27.259888 1.121545 0.064442 0.110543 0.000000 0.000000 0.000000 157.781577 -42.346155 166.768317 -51.689372 11.103523 5.427711 24.525611 -1.087357 -2.296562 3.248668 -1.781931 3.281530 5.335696 0.582208 -1.150361 0.000000 0.000000 0.000000 159.023838 -44.114375 167.018479 33.881345 0.717653 8.814674 -8.982651 -2.136222 2.221655 0.656802 1.956940 0.424314 0.000000 0.000000 0.000000 -8.958748 -1.920889 2.174312 -14.881823 -14.815910 -8.277061 -9.478029 -20.859379 7.676170 0.000000 0.000000 0.000000 -9.776033 -1.688129 2.183199 5.176852 -11.275374 20.152021 3.108570 1.376441 2.838013 -67.572113 -2.410586 -46.225795 -5.988459 -57.146342 -0.382616 0.000000 0.000000 0.000000 -8.803218 -1.556074 2.194687 5.427295 1.427163 -3.061504 -3.849108 0.145355 1.420767 0.830373 9.102292 71.360416 12.980114 27.151166 -2.514991 0.000000 0.000000 0.000000 
